
<svg width="129px" height="103px" viewBox="0 0 129 103" version="1.1" xmlns="http://www.w3.org/2000/svg" xmlns:xlink="http://www.w3.org/1999/xlink">
    <g id="Desktop" stroke="none" stroke-width="1" fill="none" fill-rule="evenodd">
        <g id="suomifi" transform="translate(-656.000000, -124.000000)" fill="#000000" fill-rule="nonzero">
            <g id="user-shield-solid" transform="translate(656.000000, 124.000000)">
                <path d="M125.432344,54.5376953 L102.212344,45.4849609 C101.385938,45.1630859 99.6726563,44.740625 97.7376563,45.4849609 L74.5176562,54.5376953 C72.3609375,55.3826172 70.95,57.3541016 70.95,59.546875 C70.95,81.9976563 84.7973437,97.528125 97.7376563,102.577539 C99.6726563,103.321875 101.365781,102.899414 102.212344,102.577539 C112.5525,98.5541016 129,84.5927734 129,59.546875 C129,57.3541016 127.589063,55.3826172 125.432344,54.5376953 Z M99.975,93.021875 L99.975,54.9802734 L119.224219,62.4839844 C118.095469,80.0060547 106.949062,89.7226563 99.975,93.021875 Z M45.15,51.5 C59.4004687,51.5 70.95,39.9728516 70.95,25.75 C70.95,11.5271484 59.4004687,0 45.15,0 C30.8995312,0 19.35,11.5271484 19.35,25.75 C19.35,39.9728516 30.8995312,51.5 45.15,51.5 Z M64.5,59.546875 C64.5,59.0439453 64.66125,58.58125 64.7217187,58.0984375 C64.2178125,58.0783203 63.7340625,57.9375 63.21,57.9375 L59.8439062,57.9375 C55.3692187,59.9894531 50.390625,61.15625 45.15,61.15625 C39.909375,61.15625 34.9509375,59.9894531 30.4560937,57.9375 L27.09,57.9375 C12.1340625,57.9375 0,70.0480469 0,84.975 L0,93.34375 C0,98.6748047 4.33359375,103 9.675,103 L80.625,103 C81.995625,103 83.3057812,102.698242 84.495,102.195312 C73.610625,93.5650391 64.5,78.7185547 64.5,59.546875 Z" id="Shape"></path>
            </g>
        </g>
    </g>
</svg>