<svg width="91px" height="56px" viewBox="0 0 91 56" version="1.1" xmlns="http://www.w3.org/2000/svg" xmlns:xlink="http://www.w3.org/1999/xlink">
    <g id="Desktop" stroke="none" stroke-width="1" fill="none" fill-rule="evenodd">
        <g id="front" transform="translate(-675.000000, -876.000000)" fill="#333333" fill-rule="nonzero">
            <g id="features" transform="translate(250.000000, 784.000000)">
                <path d="M513.488603,105.008613 L473.826667,92.5107779 C471.665409,91.8297407 469.333525,91.8297407 467.173688,92.5107779 L427.51033,105.008613 C424.163223,106.062981 424.163223,110.602743 427.51033,111.657112 L434.424935,113.835847 C432.907789,115.759377 431.975035,118.10582 431.882613,120.675386 C430.513342,121.480381 429.549307,122.932872 429.549307,124.666819 C429.549307,126.238892 430.356935,127.561591 431.520033,128.407419 L427.889972,145.160643 C427.574315,146.617509 428.654944,148 430.109528,148 L438.0877,148 C439.543705,148 440.624334,146.617509 440.308677,145.160643 L436.678616,128.407419 C437.841714,127.561591 438.649342,126.238892 438.649342,124.666819 C438.649342,122.979538 437.729386,121.56788 436.422677,120.748302 C436.53074,118.5579 437.622745,116.621246 439.364548,115.393337 L467.172266,124.156405 C468.46049,124.561819 470.931718,125.067858 473.825245,124.156405 L513.488603,111.65857 C516.837132,110.602743 516.837132,106.06444 513.488603,105.008613 Z M474.611094,129.277117 C470.599063,130.511129 467.180469,129.829323 465.3875,129.277117 L444.994062,123.001409 L443,138.984392 C443,143.964107 455.088125,148 470,148 C484.911875,148 497,143.964107 497,138.984392 L495.005937,123 L474.611094,129.277117 Z" id="grad-hat-blue"></path>
            </g>
        </g>
    </g>
</svg>