<svg width="55" height="55" viewBox="0 0 56 56" fill="none" xmlns="http://www.w3.org/2000/svg">
<circle cx="28" cy="28" r="27.5"/>
<mask id="mask0" mask-type="alpha" maskUnits="userSpaceOnUse" x="0" y="2" width="55" height="55">
<circle cx="28" cy="28" r="27.5"/>
</mask>
<g mask="url(#mask0)">
<path d="M27.9739 51.0007L27.9739 51.0007L27.9736 51.0007L27.9715 51.0008L27.9623 51.0013L27.9238 51.003C27.8894 51.0045 27.8376 51.0066 27.7697 51.0089C27.6338 51.0135 27.4332 51.0189 27.1772 51.0222C26.665 51.0288 25.9317 51.0267 25.0511 50.9917C23.2875 50.9215 20.9448 50.7199 18.6092 50.1971C16.2667 49.6727 13.9733 48.8342 12.2753 47.5163C10.5959 46.2128 9.5 44.445 9.5 42C9.5 31.7827 17.7827 23.5 28 23.5C38.2173 23.5 46.5 31.7827 46.5 42C46.5 44.445 45.4041 46.2128 43.7247 47.5163C42.0267 48.8342 39.7333 49.6727 37.3908 50.1971C35.0552 50.7199 32.7125 50.9215 30.9489 50.9917C30.0683 51.0267 29.335 51.0288 28.8228 51.0222C28.5668 51.0189 28.3662 51.0135 28.2303 51.0089C28.1624 51.0066 28.1106 51.0045 28.0762 51.003L28.0377 51.0013L28.0285 51.0008L28.0264 51.0007L28.0261 51.0007L28.0261 51.0007L28 50.9993L27.9739 51.0007Z" fill="black"/>
<circle cx="28" cy="15" r="11" fill="black" stroke-width="2"/>
</g>
</svg>
