<svg width="22" height="21" viewBox="0 0 22 21" xmlns="http://www.w3.org/2000/svg">
  <path d="M5.6001 10.3806C5.6001 10.0768 5.73819 9.78953 5.9754 9.59975L9.8827 6.47392C10.0249 6.36014 10.1334 6.20967 10.1963 6.03876L11.959 1.25429C12.1039 0.861164 12.4784 0.599998 12.8974 0.599998H13.3001C13.8524 0.599998 14.3001 1.04771 14.3001 1.6V7.4C14.3001 7.95228 14.7478 8.4 15.3001 8.4H19.2193C19.6782 8.4 20.0782 8.7123 20.1895 9.15746L21.1512 13.0045C21.1835 13.1335 21.1897 13.2677 21.1695 13.3991L20.1306 20.1521C20.0555 20.6399 19.6358 21 19.1422 21H12.2766C12.2257 21 12.1748 20.9961 12.1245 20.9884L8.47712 20.4272C8.36004 20.4092 8.24709 20.3705 8.14353 20.313L6.11445 19.1858C5.79699 19.0094 5.6001 18.6748 5.6001 18.3116V10.3806Z"/>
  <rect x="0.799805" y="9.6" width="4.2" height="10.2" rx="1"/>
</svg>
